<svg width="33" height="35" viewBox="0 0 33 35" fill="none" xmlns="http://www.w3.org/2000/svg">
<g clip-path="url(#clip0_5302_10008)">
<g clip-path="url(#clip1_5302_10008)">
<path fill-rule="evenodd" clip-rule="evenodd" d="M14.3755 11.0309V25.8118C14.3809 25.9117 14.3637 26.0116 14.3249 26.1053C14.2861 26.1991 14.2265 26.2848 14.1498 26.3572C14.0731 26.4297 13.9808 26.4874 13.8786 26.5268C13.7764 26.5662 13.6663 26.5865 13.5551 26.5865C13.4438 26.5865 13.3338 26.5662 13.2315 26.5268C13.1293 26.4874 13.037 26.4297 12.9603 26.3572C12.8836 26.2848 12.824 26.1991 12.7852 26.1053C12.7464 26.0116 12.7292 25.9117 12.7346 25.8118V14.7289C12.723 14.2459 12.5015 13.7862 12.1176 13.4484C11.7338 13.1105 11.2181 12.9213 10.681 12.9213C10.144 12.9213 9.62826 13.1105 9.24441 13.4484C8.86056 13.7862 8.63909 14.2459 8.62744 14.7289V25.8118C8.63284 25.9117 8.61561 26.0116 8.57681 26.1053C8.53801 26.1991 8.47845 26.2848 8.40173 26.3572C8.32501 26.4297 8.23274 26.4874 8.1305 26.5268C8.02827 26.5662 7.9182 26.5865 7.80698 26.5865C7.69575 26.5865 7.58569 26.5662 7.48346 26.5268C7.38122 26.4874 7.28895 26.4297 7.21223 26.3572C7.13551 26.2848 7.07595 26.1991 7.03715 26.1053C6.99835 26.0116 6.98112 25.9117 6.98651 25.8118V18.4235C6.99244 18.1775 6.94371 17.933 6.84317 17.7042C6.74263 17.4754 6.59231 17.267 6.40103 17.0911C6.20975 16.9153 5.98136 16.7756 5.72926 16.6802C5.47716 16.5849 5.20642 16.5357 4.93293 16.5357C4.65944 16.5357 4.38871 16.5849 4.1366 16.6802C3.8845 16.7756 3.65612 16.9153 3.46484 17.0911C3.27356 17.267 3.12324 17.4754 3.0227 17.7042C2.92216 17.933 2.87343 18.1775 2.87936 18.4235V25.8118C2.87936 26.9876 3.39861 28.1153 4.3229 28.9467C5.24719 29.7781 6.5008 30.2452 7.80794 30.2452H27.9277C29.2349 30.2452 30.4885 29.7781 31.4127 28.9467C32.337 28.1153 32.8563 26.9876 32.8563 25.8118V18.0536C32.857 17.3365 32.6642 16.63 32.2943 15.9947C31.9244 15.3595 31.3885 14.8146 30.7327 14.4068L30.7057 14.3903L30.6652 14.366L19.2925 7.42662C19.2259 7.38407 19.1584 7.33979 19.0898 7.30245L19.0812 7.29811C18.2884 6.84265 17.3674 6.60065 16.4267 6.60065C15.486 6.60065 14.565 6.84265 13.7723 7.29811C13.6342 7.37723 13.5008 7.46273 13.3726 7.55426L12.7317 7.96583V6.60261C12.7376 6.35665 12.6889 6.11211 12.5884 5.88332C12.4878 5.65453 12.3375 5.4461 12.1462 5.27027C11.9549 5.09443 11.7266 4.95473 11.4745 4.85935C11.2224 4.76397 10.9516 4.71484 10.6781 4.71484C10.4046 4.71484 10.1339 4.76397 9.8818 4.85935C9.6297 4.95473 9.40131 5.09443 9.21003 5.27027C9.01875 5.4461 8.86843 5.65453 8.76789 5.88332C8.66736 6.11211 8.61862 6.35665 8.62455 6.60261V10.6054L2.13418 14.7732C1.47564 15.1804 0.937208 15.7257 0.565378 16.362C0.193548 16.9983 -0.000497521 17.7064 9.57975e-07 18.4252V26.0601C9.57975e-07 26.3319 0.276063 26.5524 0.615832 26.5524C0.955602 26.5524 1.23263 26.3319 1.23263 26.0601V18.4235C1.2319 17.8946 1.37167 17.3732 1.64032 16.9027C1.90896 16.4322 2.29869 16.0263 2.77704 15.7188L9.85718 11.1733V6.60261C9.85179 6.50268 9.86902 6.4028 9.90781 6.30904C9.94662 6.21527 10.0062 6.12957 10.0829 6.05713C10.1596 5.98469 10.2519 5.92702 10.3541 5.88761C10.4564 5.84821 10.5664 5.82789 10.6776 5.82789C10.7889 5.82789 10.8989 5.84821 11.0012 5.88761C11.1034 5.92702 11.1957 5.98469 11.2724 6.05713C11.3491 6.12957 11.4087 6.21527 11.4475 6.30904C11.4863 6.4028 11.5035 6.50268 11.4981 6.60261V10.1174L11.6236 10.0367L12.1805 9.67983L14.417 8.24455C15.0158 7.89574 15.7139 7.71016 16.4272 7.71016C17.1405 7.71016 17.8386 7.89574 18.4373 8.24455L30.0899 15.355C30.5651 15.6627 30.9521 16.0678 31.2188 16.5368C31.4855 17.0058 31.6243 17.5251 31.6237 18.0519V25.81C31.6237 26.2466 31.5281 26.679 31.3423 27.0823C31.1566 27.4857 30.8844 27.8522 30.5412 28.1609C30.1979 28.4696 29.7905 28.7145 29.3421 28.8816C28.8937 29.0487 28.4131 29.1347 27.9277 29.1347H7.80408C7.31872 29.1347 6.83811 29.0487 6.3897 28.8816C5.94129 28.7145 5.53385 28.4696 5.19065 28.1609C4.84745 27.8522 4.5752 27.4857 4.38946 27.0823C4.20372 26.679 4.10812 26.2466 4.10812 25.81V18.4235C4.11835 18.2339 4.20925 18.0552 4.362 17.9243C4.51475 17.7934 4.71762 17.7204 4.92859 17.7204C5.13955 17.7204 5.34243 17.7934 5.49518 17.9243C5.64793 18.0552 5.73883 18.2339 5.74906 18.4235V25.8118C5.74313 26.0577 5.79186 26.3023 5.8924 26.5311C5.99294 26.7598 6.14326 26.9683 6.33454 27.1441C6.52582 27.3199 6.75421 27.4596 7.00631 27.555C7.25841 27.6504 7.52915 27.6995 7.80264 27.6995C8.07613 27.6995 8.34686 27.6504 8.59896 27.555C8.85106 27.4596 9.07946 27.3199 9.27073 27.1441C9.46201 26.9683 9.61233 26.7598 9.71287 26.5311C9.81341 26.3023 9.86214 26.0577 9.85621 25.8118V14.7289C9.85082 14.629 9.86805 14.5291 9.90685 14.4353C9.94565 14.3416 10.0052 14.2559 10.0819 14.1834C10.1587 14.111 10.2509 14.0533 10.3532 14.0139C10.4554 13.9745 10.5655 13.9542 10.6767 13.9542C10.7879 13.9542 10.898 13.9745 11.0002 14.0139C11.1024 14.0533 11.1947 14.111 11.2714 14.1834C11.3481 14.2559 11.4077 14.3416 11.4465 14.4353C11.4853 14.5291 11.5025 14.629 11.4971 14.7289V25.8118C11.4912 26.0577 11.54 26.3023 11.6405 26.5311C11.741 26.7598 11.8913 26.9683 12.0826 27.1441C12.2739 27.3199 12.5023 27.4596 12.7544 27.555C13.0065 27.6504 13.2772 27.6995 13.5507 27.6995C13.8242 27.6995 14.095 27.6504 14.3471 27.555C14.5992 27.4596 14.8275 27.3199 15.0188 27.1441C15.2101 26.9683 15.3604 26.7598 15.461 26.5311C15.5615 26.3023 15.6102 26.0577 15.6043 25.8118V11.0309C15.5989 10.931 15.6161 10.8311 15.6549 10.7373C15.6937 10.6435 15.7533 10.5578 15.83 10.4854C15.9067 10.413 15.999 10.3553 16.1012 10.3159C16.2035 10.2765 16.3135 10.2562 16.4248 10.2562C16.536 10.2562 16.6461 10.2765 16.7483 10.3159C16.8505 10.3553 16.9428 10.413 17.0195 10.4854C17.0962 10.5578 17.1558 10.6435 17.1946 10.7373C17.2334 10.8311 17.2506 10.931 17.2452 11.0309V25.8118C17.2393 26.0577 17.288 26.3023 17.3886 26.5311C17.4891 26.7598 17.6394 26.9683 17.8307 27.1441C18.022 27.3199 18.2504 27.4596 18.5025 27.555C18.7546 27.6504 19.0253 27.6995 19.2988 27.6995C19.5723 27.6995 19.843 27.6504 20.0951 27.555C20.3472 27.4596 20.5756 27.3199 20.7669 27.1441C20.9582 26.9683 21.1085 26.7598 21.2091 26.5311C21.3096 26.3023 21.3583 26.0577 21.3524 25.8118V14.7289C21.3626 14.5394 21.4535 14.3606 21.6063 14.2297C21.759 14.0988 21.9619 14.0258 22.1729 14.0258C22.3838 14.0258 22.5867 14.0988 22.7395 14.2297C22.8922 14.3606 22.9831 14.5394 22.9933 14.7289V25.8118C22.9933 26.0543 23.0464 26.2944 23.1496 26.5185C23.2528 26.7426 23.404 26.9462 23.5947 27.1177C23.7853 27.2892 24.0116 27.4252 24.2607 27.518C24.5098 27.6108 24.7768 27.6586 25.0464 27.6586C25.316 27.6586 25.583 27.6108 25.8321 27.518C26.0812 27.4252 26.3075 27.2892 26.4982 27.1177C26.6888 26.9462 26.8401 26.7426 26.9432 26.5185C27.0464 26.2944 27.0995 26.0543 27.0995 25.8118V18.0536C27.1097 17.8641 27.2007 17.6853 27.3534 17.5544C27.5061 17.4235 27.709 17.3505 27.92 17.3505C28.131 17.3505 28.3338 17.4235 28.4866 17.5544C28.6393 17.6853 28.7302 17.8641 28.7405 18.0536V25.9967C28.7468 26.1399 28.8144 26.2754 28.9293 26.3748C29.0442 26.4741 29.1974 26.5296 29.3568 26.5296C29.5161 26.5296 29.6693 26.4741 29.7842 26.3748C29.8991 26.2754 29.9668 26.1399 29.9731 25.9967V18.0536C29.9614 17.5706 29.74 17.1109 29.3561 16.773C28.9723 16.4351 28.4566 16.2459 27.9195 16.2459C27.3824 16.2459 26.8667 16.4351 26.4829 16.773C26.099 17.1109 25.8776 17.5706 25.8659 18.0536V25.8118C25.8713 25.9117 25.8541 26.0116 25.8153 26.1053C25.7765 26.1991 25.7169 26.2848 25.6402 26.3572C25.5635 26.4297 25.4712 26.4874 25.369 26.5268C25.2668 26.5662 25.1567 26.5865 25.0455 26.5865C24.9342 26.5865 24.8242 26.5662 24.7219 26.5268C24.6197 26.4874 24.5274 26.4297 24.4507 26.3572C24.374 26.2848 24.3144 26.1991 24.2756 26.1053C24.2368 26.0116 24.2196 25.9117 24.225 25.8118V14.7289C24.2134 14.2459 23.9919 13.7862 23.608 13.4484C23.2242 13.1105 22.7085 12.9213 22.1714 12.9213C21.6344 12.9213 21.1187 13.1105 20.7348 13.4484C20.351 13.7862 20.1295 14.2459 20.1178 14.7289V25.8118C20.1232 25.9117 20.106 26.0116 20.0672 26.1053C20.0284 26.1991 19.9688 26.2848 19.8921 26.3572C19.8154 26.4297 19.7231 26.4874 19.6209 26.5268C19.5187 26.5662 19.4086 26.5865 19.2974 26.5865C19.1861 26.5865 19.0761 26.5662 18.9738 26.5268C18.8716 26.4874 18.7793 26.4297 18.7026 26.3572C18.6259 26.2848 18.5663 26.1991 18.5275 26.1053C18.4887 26.0116 18.4715 25.9117 18.4769 25.8118V11.0309C18.4769 10.5411 18.2606 10.0713 17.8756 9.72496C17.4905 9.37861 16.9683 9.18403 16.4238 9.18403C15.8793 9.18403 15.3571 9.37861 14.972 9.72496C14.587 10.0713 14.3707 10.5411 14.3707 11.0309H14.3755Z" fill="#FAF39E"/>
</g>
</g>
<defs>
<clipPath id="clip0_5302_10008">
<rect width="32.8553" height="33.9883" fill="white" transform="translate(0 0.505859)"/>
</clipPath>
<clipPath id="clip1_5302_10008">
<rect width="32.8553" height="25.4912" fill="white" transform="translate(0 4.75439)"/>
</clipPath>
</defs>
</svg>
