<svg width="78" height="77" viewBox="0 0 78 77" fill="none" xmlns="http://www.w3.org/2000/svg">
<g filter="url(#filter0_d_5326_6217)">
<ellipse cx="38.8302" cy="34.4986" rx="33.3302" ry="33.4986" stroke="#666666" stroke-width="1.76"/>
<circle cx="39.0008" cy="34.5008" r="29.3988" stroke="#666666" stroke-width="1.76"/>
<path d="M53.6814 16.1143L54.4348 16.0915C54.4236 15.688 54.0905 15.3675 53.6828 15.368L53.6814 16.1143ZM53.7619 19.0161L53.236 19.5525C53.4558 19.7637 53.7834 19.8215 54.0644 19.6987C54.3454 19.5759 54.5237 19.2969 54.5152 18.9933L53.7619 19.0161ZM50.7467 16.1183L50.7481 15.372C50.4412 15.3724 50.1646 15.557 50.0488 15.8388C49.933 16.1206 50.001 16.4433 50.2209 16.6546L50.7467 16.1183ZM51.6029 16.9411L52.1423 17.4606C52.282 17.3184 52.359 17.1272 52.3565 16.9292C52.3539 16.7311 52.272 16.5425 52.1287 16.4048L51.6029 16.9411ZM47.32 21.3012L46.7806 20.7817C46.6409 20.9239 46.5638 21.1151 46.5664 21.3131C46.569 21.5112 46.6509 21.6998 46.7942 21.8375L47.32 21.3012ZM48.6256 22.556L48.0998 23.0924C48.3978 23.3788 48.8745 23.3712 49.165 23.0755L48.6256 22.556ZM52.9084 18.1959L53.4343 17.6596C53.1363 17.3732 52.6595 17.3807 52.369 17.6765L52.9084 18.1959ZM52.928 16.1372L53.0085 19.039L54.5152 18.9933L54.4348 16.0915L52.928 16.1372ZM50.7453 16.8646L53.68 16.8606L53.6828 15.368L50.7481 15.372L50.7453 16.8646ZM52.1287 16.4048L51.2726 15.5819L50.2209 16.6546L51.077 17.4775L52.1287 16.4048ZM47.8595 21.8207L52.1423 17.4606L51.0634 16.4216L46.7806 20.7817L47.8595 21.8207ZM49.1514 22.0197L47.8458 20.7649L46.7942 21.8375L48.0998 23.0924L49.1514 22.0197ZM52.369 17.6765L48.0862 22.0365L49.165 23.0755L53.4479 18.7154L52.369 17.6765ZM54.2877 18.4798L53.4343 17.6596L52.3826 18.7323L53.236 19.5525L54.2877 18.4798Z" fill="#666666"/>
<path d="M31.2153 11.939L31.7357 11.3989C31.4452 11.119 30.9853 11.119 30.6948 11.3989L31.2153 11.939ZM33.3173 13.9647V14.7147C33.6231 14.7147 33.8984 14.529 34.0128 14.2453C34.1272 13.9616 34.058 13.6369 33.8377 13.4247L33.3173 13.9647ZM29.1133 13.9647L28.5928 13.4247C28.3726 13.6369 28.3033 13.9616 28.4178 14.2453C28.5322 14.529 28.8074 14.7147 29.1133 14.7147V13.9647ZM30.2996 13.9647H31.0496C31.0496 13.5505 30.7138 13.2147 30.2996 13.2147V13.9647ZM30.2996 20.0436H29.5496C29.5496 20.4578 29.8854 20.7936 30.2996 20.7936V20.0436ZM32.12 20.0436V20.7936C32.5342 20.7936 32.87 20.4578 32.87 20.0436H32.12ZM32.12 13.9647V13.2147C31.7057 13.2147 31.37 13.5505 31.37 13.9647H32.12ZM30.6948 12.479L32.7968 14.5047L33.8377 13.4247L31.7357 11.3989L30.6948 12.479ZM29.6337 14.5047L31.7357 12.479L30.6948 11.3989L28.5928 13.4247L29.6337 14.5047ZM30.2996 13.2147H29.1133V14.7147H30.2996V13.2147ZM31.0496 20.0436V13.9647H29.5496V20.0436H31.0496ZM32.12 19.2936H30.2996V20.7936H32.12V19.2936ZM31.37 13.9647V20.0436H32.87V13.9647H31.37ZM33.3173 13.2147H32.12V14.7147H33.3173V13.2147Z" fill="#666666"/>
<path d="M61.5627 38.0582L62.0971 38.5845C62.3846 38.2926 62.3846 37.8239 62.0971 37.5319L61.5627 38.0582ZM59.5148 40.1374L58.7648 40.1374C58.7648 40.4418 58.9488 40.716 59.2304 40.8314C59.5121 40.9469 59.8356 40.8806 60.0491 40.6637L59.5148 40.1374ZM59.5148 35.979L60.0491 35.4527C59.8356 35.2359 59.5121 35.1696 59.2304 35.285C58.9488 35.4004 58.7648 35.6746 58.7648 35.979L59.5148 35.979ZM59.5148 37.1512L59.5148 37.9012C59.929 37.9012 60.2648 37.5654 60.2648 37.1512L59.5148 37.1512ZM53.3759 37.1512L53.3759 36.4012C53.177 36.4012 52.9862 36.4802 52.8455 36.6209C52.7049 36.7615 52.6259 36.9523 52.6259 37.1512L53.3759 37.1512ZM53.3759 38.9518L52.6259 38.9518C52.6259 39.3661 52.9617 39.7018 53.3759 39.7018L53.3759 38.9518ZM59.5148 38.9518L60.2648 38.9518C60.2648 38.7529 60.1858 38.5622 60.0451 38.4215C59.9045 38.2809 59.7137 38.2018 59.5148 38.2018L59.5148 38.9518ZM61.0284 37.5319L58.9805 39.6111L60.0491 40.6637L62.0971 38.5845L61.0284 37.5319ZM58.9805 36.5053L61.0284 38.5845L62.0971 37.5319L60.0491 35.4527L58.9805 36.5053ZM60.2648 37.1512L60.2648 35.979L58.7648 35.979L58.7648 37.1512L60.2648 37.1512ZM53.3759 37.9012L59.5148 37.9012L59.5148 36.4012L53.3759 36.4012L53.3759 37.9012ZM54.1259 38.9518L54.1259 37.1512L52.6259 37.1512L52.6259 38.9518L54.1259 38.9518ZM59.5148 38.2018L53.3759 38.2018L53.3759 39.7018L59.5148 39.7018L59.5148 38.2018ZM60.2648 40.1374L60.2648 38.9518L58.7648 38.9518L58.7648 40.1374L60.2648 40.1374Z" fill="#666666"/>
<path d="M38.959 57.0627L38.4386 57.6028C38.7291 57.8827 39.189 57.8827 39.4795 57.6028L38.959 57.0627ZM36.857 55.037L36.857 54.287C36.5512 54.287 36.2759 54.4727 36.1615 54.7564C36.0471 55.0401 36.1164 55.3648 36.3366 55.577L36.857 55.037ZM41.061 55.037L41.5815 55.577C41.8017 55.3648 41.871 55.0401 41.7566 54.7564C41.6421 54.4727 41.3669 54.287 41.061 54.287L41.061 55.037ZM39.8747 55.037L39.1247 55.037C39.1247 55.2359 39.2038 55.4267 39.3444 55.5673C39.4851 55.708 39.6758 55.787 39.8747 55.787L39.8747 55.037ZM39.8747 48.9581L40.6247 48.9581C40.6247 48.7592 40.5457 48.5685 40.4051 48.4278C40.2644 48.2872 40.0737 48.2081 39.8747 48.2081L39.8747 48.9581ZM38.0544 48.9581L38.0544 48.2081C37.6402 48.2081 37.3044 48.5439 37.3044 48.9581L38.0544 48.9581ZM38.0544 55.037L38.0544 55.787C38.4686 55.787 38.8044 55.4512 38.8044 55.037L38.0544 55.037ZM39.4795 56.5227L37.3775 54.497L36.3366 55.577L38.4386 57.6028L39.4795 56.5227ZM40.5406 54.497L38.4386 56.5227L39.4795 57.6028L41.5815 55.577L40.5406 54.497ZM39.8747 55.787L41.061 55.787L41.061 54.287L39.8747 54.287L39.8747 55.787ZM39.1247 48.9581L39.1247 55.037L40.6247 55.037L40.6247 48.9581L39.1247 48.9581ZM38.0544 49.7081L39.8747 49.7081L39.8747 48.2081L38.0544 48.2081L38.0544 49.7081ZM38.8044 55.037L38.8044 48.9581L37.3044 48.9581L37.3044 55.037L38.8044 55.037ZM36.857 55.787L38.0544 55.787L38.0544 54.287L36.857 54.287L36.857 55.787Z" fill="#666666"/>
<path d="M16.439 38.0587L15.9046 37.5324C15.6171 37.8244 15.6171 38.2931 15.9046 38.585L16.439 38.0587ZM18.4869 35.9795L19.2369 35.9795C19.2369 35.6751 19.0529 35.4009 18.7713 35.2855C18.4896 35.1701 18.1662 35.2364 17.9526 35.4532L18.4869 35.9795ZM18.4869 40.1379L17.9526 40.6642C18.1662 40.8811 18.4896 40.9473 18.7713 40.8319C19.0529 40.7165 19.2369 40.4423 19.2369 40.1379L18.4869 40.1379ZM18.4869 38.9658L18.4869 38.2158C18.0727 38.2158 17.7369 38.5515 17.7369 38.9658L18.4869 38.9658ZM24.6258 38.9658L24.6258 39.7158C25.04 39.7158 25.3758 39.38 25.3758 38.9658L24.6258 38.9658ZM24.6258 37.1651L25.3758 37.1651C25.3758 36.7509 25.04 36.4151 24.6258 36.4151L24.6258 37.1651ZM18.4869 37.1651L17.7369 37.1651C17.7369 37.5793 18.0727 37.9151 18.4869 37.9151L18.4869 37.1651ZM16.9733 38.585L19.0212 36.5058L17.9526 35.4532L15.9046 37.5324L16.9733 38.585ZM19.0212 39.6116L16.9733 37.5324L15.9046 38.585L17.9526 40.6642L19.0212 39.6116ZM17.7369 38.9658L17.7369 40.1379L19.2369 40.1379L19.2369 38.9658L17.7369 38.9658ZM24.6258 38.2158L18.4869 38.2158L18.4869 39.7158L24.6258 39.7158L24.6258 38.2158ZM23.8758 37.1651L23.8758 38.9658L25.3758 38.9658L25.3758 37.1651L23.8758 37.1651ZM18.4869 37.9151L24.6258 37.9151L24.6258 36.4151L18.4869 36.4151L18.4869 37.9151ZM17.7369 35.9795L17.7369 37.1651L19.2369 37.1651L19.2369 35.9795L17.7369 35.9795Z" fill="#666666"/>
<path d="M52.0408 29.7575C52.0408 29.3433 51.705 29.0075 51.2908 29.0075C50.8766 29.0075 50.5408 29.3433 50.5408 29.7575H52.0408ZM51.2908 46.6932L51.2945 47.4432C51.7073 47.4411 52.0408 47.106 52.0408 46.6932H51.2908ZM26.0173 46.8167H25.2673C25.2673 47.0162 25.3468 47.2075 25.4882 47.3483C25.6297 47.4891 25.8214 47.5676 26.0209 47.5667L26.0173 46.8167ZM26.7673 29.5555C26.7673 29.1413 26.4315 28.8055 26.0173 28.8055C25.603 28.8055 25.2673 29.1413 25.2673 29.5555H26.7673ZM38.6488 16.4458L39.1547 15.8921C38.8726 15.6344 38.4419 15.6299 38.1545 15.8818L38.6488 16.4458ZM52.7074 30.3061C53.0132 30.5855 53.4876 30.5641 53.767 30.2583C54.0464 29.9525 54.025 29.4781 53.7192 29.1987L52.7074 30.3061ZM23.324 28.8794C23.0125 29.1524 22.9813 29.6263 23.2543 29.9378C23.5273 30.2493 24.0012 30.2805 24.3127 30.0075L23.324 28.8794ZM23.8041 28.6931C23.3899 28.701 23.0606 29.0431 23.0685 29.4573C23.0764 29.8714 23.4185 30.2007 23.8326 30.1929L23.8041 28.6931ZM26.0263 30.1511C26.4404 30.1432 26.7697 29.8011 26.7618 29.387C26.754 28.9728 26.4119 28.6435 25.9977 28.6514L26.0263 30.1511ZM51.2936 28.9994C50.8794 28.9994 50.5436 29.3351 50.5436 29.7494C50.5436 30.1636 50.8794 30.4994 51.2936 30.4994V28.9994ZM53.0589 30.4994C53.4731 30.4994 53.8089 30.1636 53.8089 29.7494C53.8089 29.3351 53.4731 28.9994 53.0589 28.9994V30.4994ZM26.6577 32.7038C26.2435 32.7038 25.9077 33.0396 25.9077 33.4538C25.9077 33.868 26.2435 34.2038 26.6577 34.2038V32.7038ZM50.7516 34.2038C51.1658 34.2038 51.5016 33.868 51.5016 33.4538C51.5016 33.0396 51.1658 32.7038 50.7516 32.7038V34.2038ZM35.1301 36.1742V35.4242C34.7159 35.4242 34.3801 35.76 34.3801 36.1742H35.1301ZM42.0658 36.1742H42.8158C42.8158 35.76 42.4801 35.4242 42.0658 35.4242V36.1742ZM41.3158 46.2697C41.3158 46.6839 41.6516 47.0197 42.0658 47.0197C42.4801 47.0197 42.8158 46.6839 42.8158 46.2697H41.3158ZM34.3801 46.2697C34.3801 46.6839 34.7159 47.0197 35.1301 47.0197C35.5443 47.0197 35.8801 46.6839 35.8801 46.2697H34.3801ZM39.9315 41.5535C39.9315 41.5249 39.9446 41.5023 39.9561 41.4912C39.9672 41.4804 39.9799 41.4765 39.988 41.4765V42.9765C40.7638 42.9765 41.4315 42.3605 41.4315 41.5535H39.9315ZM39.988 41.6305C39.9799 41.6305 39.9672 41.6266 39.9561 41.6158C39.9446 41.6047 39.9315 41.5821 39.9315 41.5535H41.4315C41.4315 40.7465 40.7638 40.1305 39.988 40.1305V41.6305ZM40.0444 41.5535C40.0444 41.5821 40.0313 41.6047 40.0198 41.6158C40.0087 41.6266 39.996 41.6305 39.988 41.6305V40.1305C39.2121 40.1305 38.5444 40.7465 38.5444 41.5535H40.0444ZM39.988 41.4765C39.996 41.4765 40.0087 41.4804 40.0198 41.4912C40.0313 41.5023 40.0444 41.5249 40.0444 41.5535H38.5444C38.5444 42.3605 39.2121 42.9765 39.988 42.9765V41.4765ZM50.5408 29.7575V46.6932H52.0408V29.7575H50.5408ZM51.2872 45.9432L26.0136 46.0667L26.0209 47.5667L51.2945 47.4432L51.2872 45.9432ZM26.7673 46.8167V29.5555H25.2673V46.8167H26.7673ZM38.143 16.9995L52.7074 30.3061L53.7192 29.1987L39.1547 15.8921L38.143 16.9995ZM24.3127 30.0075L39.1432 17.0098L38.1545 15.8818L23.324 28.8794L24.3127 30.0075ZM23.8326 30.1929L26.0263 30.1511L25.9977 28.6514L23.8041 28.6931L23.8326 30.1929ZM51.2936 30.4994H53.0589V28.9994H51.2936V30.4994ZM26.6577 34.2038H50.7516V32.7038H26.6577V34.2038ZM35.1301 36.9242H42.0658V35.4242H35.1301V36.9242ZM41.3158 36.1742V46.2697H42.8158V36.1742H41.3158ZM35.8801 46.2697V36.1742H34.3801V46.2697H35.8801Z" fill="#666666"/>
</g>
<defs>
<filter id="filter0_d_5326_6217" x="0.620117" y="0.120117" width="76.4202" height="76.7571" filterUnits="userSpaceOnUse" color-interpolation-filters="sRGB">
<feFlood flood-opacity="0" result="BackgroundImageFix"/>
<feColorMatrix in="SourceAlpha" type="matrix" values="0 0 0 0 0 0 0 0 0 0 0 0 0 0 0 0 0 0 127 0" result="hardAlpha"/>
<feOffset dy="4"/>
<feGaussianBlur stdDeviation="2"/>
<feComposite in2="hardAlpha" operator="out"/>
<feColorMatrix type="matrix" values="0 0 0 0 0.4 0 0 0 0 0.4 0 0 0 0 0.4 0 0 0 0.25 0"/>
<feBlend mode="normal" in2="BackgroundImageFix" result="effect1_dropShadow_5326_6217"/>
<feBlend mode="normal" in="SourceGraphic" in2="effect1_dropShadow_5326_6217" result="shape"/>
</filter>
</defs>
</svg>
