<svg width="24" height="24" viewBox="0 0 24 24" fill="none" xmlns="http://www.w3.org/2000/svg">
<g id="Group 850">
<path id="Vector" d="M23.7185 22.3067L17.7544 16.3426C19.3797 14.3548 20.1788 11.8184 19.9865 9.25796C19.7941 6.69754 18.6249 4.309 16.7209 2.5864C14.8168 0.863809 12.3235 -0.0610491 9.75666 0.00313002C7.18981 0.0673091 4.74583 1.11562 2.93024 2.93121C1.11464 4.74681 0.0663325 7.19079 0.00215346 9.75763C-0.0620256 12.3245 0.862833 14.8178 2.58543 16.7219C4.30802 18.6259 6.69656 19.7951 9.25699 19.9874C11.8174 20.1798 14.3538 19.3807 16.3416 17.7554L22.3057 23.7195C22.4942 23.9015 22.7465 24.0022 23.0085 24C23.2705 23.9977 23.5211 23.8926 23.7064 23.7073C23.8916 23.5221 23.9967 23.2715 23.999 23.0095C24.0013 22.7475 23.9006 22.4951 23.7185 22.3067ZM10.0228 18.0172C8.44184 18.0172 6.8964 17.5484 5.58188 16.6701C4.26737 15.7917 3.24283 14.5433 2.63783 13.0827C2.03282 11.6221 1.87453 10.0149 2.18295 8.46433C2.49138 6.91376 3.25268 5.48946 4.37059 4.37156C5.48849 3.25366 6.91278 2.49236 8.46335 2.18393C10.0139 1.8755 11.6211 2.0338 13.0817 2.6388C14.5424 3.24381 15.7908 4.26835 16.6691 5.58286C17.5474 6.89737 18.0162 8.44282 18.0162 10.0238C18.0138 12.143 17.1709 14.1748 15.6724 15.6734C14.1738 17.1719 12.1421 18.0148 10.0228 18.0172Z" fill="#BB8E34"/>
<path id="Vector_2" d="M13.0206 9.02378H11.0223V7.02542C11.0223 6.76043 10.917 6.50628 10.7296 6.3189C10.5422 6.13152 10.2881 6.02625 10.0231 6.02625C9.75808 6.02625 9.50394 6.13152 9.31656 6.3189C9.12917 6.50628 9.0239 6.76043 9.0239 7.02542V9.02378H7.02555C6.76055 9.02378 6.5064 9.12905 6.31902 9.31644C6.13164 9.50382 6.02637 9.75796 6.02637 10.023C6.02637 10.288 6.13164 10.5421 6.31902 10.7295C6.5064 10.9169 6.76055 11.0221 7.02555 11.0221H9.0239V13.0205C9.0239 13.2855 9.12917 13.5396 9.31656 13.727C9.50394 13.9144 9.75808 14.0197 10.0231 14.0197C10.2881 14.0197 10.5422 13.9144 10.7296 13.727C10.917 13.5396 11.0223 13.2855 11.0223 13.0205V11.0221H13.0206C13.2856 11.0221 13.5398 10.9169 13.7271 10.7295C13.9145 10.5421 14.0198 10.288 14.0198 10.023C14.0198 9.75796 13.9145 9.50382 13.7271 9.31644C13.5398 9.12905 13.2856 9.02378 13.0206 9.02378Z" fill="#BB8E34"/>
</g>
</svg>
